<svg width="165" height="28" fill="none" xmlns="http://www.w3.org/2000/svg"><g clip-path="url(#clip0)"><path d="M19.573 18.8l-2.182-2.178a3.679 3.679 0 010-5.213l2.182-2.178a3.695 3.695 0 015.223 0l2.182 2.178a3.679 3.679 0 010 5.213L24.796 18.8a3.752 3.752 0 01-5.223 0z" fill="#DCA74A"/><path d="M22.184 16.438a2.425 2.425 0 002.428-2.423 2.425 2.425 0 00-2.428-2.423 2.425 2.425 0 00-2.427 2.423 2.425 2.425 0 002.427 2.423z" fill="#2D2F32"/><path d="M18.817 9.892l-.76.76 2.194 2.19.76-.76-2.194-2.19z" fill="#2D2F32"/><path d="M18.866 8.464l-2.182 2.178a3.695 3.695 0 01-5.223 0L9.279 8.464a3.679 3.679 0 010-5.213l2.182-2.178a3.695 3.695 0 015.223 0l2.182 2.178a3.679 3.679 0 010 5.213z" fill="#DCA74A"/><path d="M14.073 8.28A2.425 2.425 0 0016.5 5.858a2.425 2.425 0 00-2.427-2.423 2.425 2.425 0 00-2.428 2.423 2.425 2.425 0 002.428 2.422z" fill="#2D2F32"/><path d="M9.944 9.218l.76.759 2.195-2.19-.76-.76-2.195 2.19z" fill="#2D2F32"/><path d="M9.187 19.536l2.182-2.178a3.695 3.695 0 015.223 0l2.182 2.178a3.678 3.678 0 010 5.213l-2.182 2.178a3.695 3.695 0 01-5.223 0l-2.182-2.178a3.735 3.735 0 010-5.213z" fill="#DCA74A"/><path d="M13.98 24.565a2.425 2.425 0 002.428-2.423 2.425 2.425 0 00-2.428-2.422 2.425 2.425 0 00-2.427 2.422 2.425 2.425 0 002.427 2.423z" fill="#2D2F32"/><path d="M18.1 18.797l-.76-.76-2.194 2.191.76.76 2.195-2.191z" fill="#2D2F32"/><path d="M8.48 9.231l2.182 2.178a3.679 3.679 0 010 5.213L8.48 18.8a3.695 3.695 0 01-5.223 0l-2.182-2.177a3.679 3.679 0 010-5.213l2.182-2.18a3.695 3.695 0 015.223 0z" fill="#DCA74A"/><path d="M5.869 16.407a2.425 2.425 0 002.427-2.422 2.425 2.425 0 00-2.427-2.423 2.425 2.425 0 00-2.428 2.423 2.425 2.425 0 002.428 2.422z" fill="#2D2F32"/><path d="M9.22 18.112l.76-.759-2.194-2.19-.76.759 2.194 2.19z" fill="#2D2F32"/><path d="M35.12 4.232h3.165l7.958 13.525h.092V4.232h2.612v16.929H45.69L37.793 7.575h-.092v13.586h-2.58V4.232zM63.235 15.58h-8.85c.093 1.195.461 2.146 1.045 2.82.615.676 1.414.982 2.458.982.891 0 1.598-.215 2.12-.675.523-.46.8-1.042.922-1.809h2.12c-.184 1.442-.768 2.576-1.659 3.343-.922.767-2.028 1.165-3.318 1.165s-2.366-.276-3.288-.858a5.404 5.404 0 01-2.059-2.331c-.46-.982-.676-2.086-.676-3.282 0-1.196.215-2.3.646-3.312a5.503 5.503 0 011.935-2.392c.86-.583 1.936-.89 3.196-.89 1.26 0 2.304.307 3.134.89.83.583 1.413 1.38 1.782 2.33.369.951.553 1.994.553 3.098-.03.368-.03.675-.061.92zm-7.866-4.294c-.584.582-.891 1.41-.983 2.453h6.575c-.061-1.012-.338-1.84-.86-2.453-.523-.614-1.322-.92-2.336-.92-1.044.03-1.813.306-2.396.92zm26.947-2.699l-2.98 12.574h-3.412l-2.55-9.354-2.52 9.385h-3.41l-2.95-12.574h2.674l2.058 10.672 3.011-10.672h2.274l3.042 10.703 2.09-10.703h2.673v-.031zm2.365 11.869c-1.136-.798-1.69-1.963-1.69-3.527h2.274c0 .92.277 1.625.83 2.024.522.399 1.29.582 2.304.582.676-.03 1.23-.183 1.66-.49.43-.307.645-.767.645-1.38 0-.43-.123-.767-.4-1.012a2.566 2.566 0 00-.983-.552 48.36 48.36 0 00-1.813-.491c-.921-.215-1.659-.43-2.212-.644a3.64 3.64 0 01-1.444-1.012c-.4-.46-.584-1.073-.584-1.84 0-1.196.43-2.147 1.29-2.791.861-.644 1.967-.981 3.38-.981 1.352 0 2.428.276 3.257.828.554.368.984.828 1.26 1.38.277.552.43 1.196.43 1.901h-2.15c0-.828-.277-1.41-.8-1.779-.46-.306-1.075-.46-1.781-.46-.769 0-1.352.154-1.844.43-.46.276-.707.705-.707 1.226 0 .368.154.644.43.86.277.214.615.398.984.49.368.123 1.044.276 1.997.521.86.215 1.598.43 2.15.675a3.543 3.543 0 011.414 1.073c.369.46.553 1.104.553 1.902 0 1.257-.43 2.239-1.26 2.944-.83.705-1.874 1.043-3.134 1.043-1.751.061-3.103-.276-4.055-.92z" fill="#BEBFC0"/><path d="M106.159 15.58H97.31c.092 1.195.46 2.146 1.045 2.82.614.676 1.413.982 2.458.982.891 0 1.598-.215 2.12-.675.522-.46.799-1.042.922-1.809h2.12c-.185 1.442-.768 2.576-1.659 3.343-.922.767-2.028 1.165-3.319 1.165-1.29 0-2.366-.276-3.287-.858a5.404 5.404 0 01-2.06-2.331c-.46-.982-.675-2.086-.675-3.282 0-1.196.215-2.3.645-3.312a5.503 5.503 0 011.936-2.392c.86-.583 1.936-.89 3.195-.89 1.26 0 2.305.307 3.134.89.83.583 1.414 1.38 1.783 2.33.368.951.553 1.994.553 3.098-.031.368-.031.675-.062.92zm-7.866-4.294c-.584.582-.89 1.41-.983 2.453h6.545c-.062-1.012-.338-1.84-.861-2.453-.522-.614-1.321-.92-2.335-.92-1.014.03-1.813.306-2.366.92zm13.428 3.527l-4.855-6.226h3.073l3.502 4.6 3.472-4.6h3.073l-4.855 6.226 4.824 6.348h-3.072l-3.472-4.692-3.472 4.692h-3.073l4.855-6.348zm10.17-6.226h2.458v1.779c.461-.675 1.076-1.166 1.813-1.534.737-.368 1.536-.521 2.397-.521 1.106 0 2.089.276 2.888.828.83.552 1.444 1.319 1.874 2.33.43.982.645 2.117.645 3.374 0 1.258-.215 2.392-.645 3.374-.43.981-1.075 1.779-1.905 2.33-.829.553-1.813.86-2.919.86-.891 0-1.69-.154-2.427-.491-.738-.338-1.321-.828-1.752-1.534v6.103h-2.458V8.587h.031zm8.634 9.569c.645-.798.983-1.902.983-3.313 0-1.38-.338-2.484-.983-3.25-.645-.767-1.567-1.166-2.704-1.166-1.106 0-1.997.399-2.642 1.196-.645.798-.983 1.87-.983 3.22 0 1.411.338 2.515.983 3.313.645.797 1.536 1.196 2.642 1.196 1.168 0 2.059-.4 2.704-1.197zm16.9-2.576h-8.85c.093 1.195.461 2.146 1.045 2.82.615.676 1.414.982 2.458.982.891 0 1.598-.215 2.12-.675.523-.46.799-1.042.922-1.809h2.12c-.184 1.442-.768 2.576-1.659 3.343-.922.767-2.028 1.165-3.318 1.165-1.291 0-2.366-.276-3.288-.858a5.404 5.404 0 01-2.059-2.331c-.461-.982-.676-2.086-.676-3.282 0-1.196.215-2.3.645-3.312a5.512 5.512 0 011.936-2.392c.861-.583 1.936-.89 3.196-.89 1.26 0 2.304.307 3.134.89.829.583 1.413 1.38 1.782 2.33.369.951.553 1.994.553 3.098-.031.368-.031.675-.061.92zm-7.866-4.294c-.584.582-.891 1.41-.984 2.453h6.576c-.062-1.012-.338-1.84-.86-2.453-.523-.614-1.322-.92-2.336-.92-1.044.03-1.843.306-2.396.92zm10.723-2.699h2.427v1.687c.308-.583.707-1.043 1.23-1.38.522-.338 1.106-.49 1.751-.49.369 0 .768.06 1.26.183v2.27h-.338a4.142 4.142 0 00-1.137-.184c-.83 0-1.506.306-1.967.95-.491.644-.737 1.411-.737 2.362v7.176h-2.489V8.587zm9.341 9.293v-7.422h-1.844V8.587h1.844V5.704h2.458v2.883H165v1.87h-2.919v6.84c0 .674.123 1.165.369 1.441s.676.43 1.259.43H165v1.993h-2.243c-2.089 0-3.134-1.104-3.134-3.282z" fill="#DCA74A"/></g><defs><clipPath id="clip0"><path fill="#fff" d="M0 0h165v28H0z"/></clipPath></defs></svg>