<svg width="106" height="84" fill="none" xmlns="http://www.w3.org/2000/svg"><path d="M51.19 44.417l-3.893-9.83-10.459 1.544-3.938-9.855-10.458 1.543-3.893-9.829-9.658 1.825-.107-.543 10.104-1.868 3.919 9.784 10.432-1.499 3.964 9.81 10.432-1.498 3.919 9.784 10.432-1.498 3.919 9.783 10.478-1.472 3.918 9.784 10.433-1.498 4.02 10.023-.524.179-3.835-9.616-10.459 1.544-3.892-9.83-10.504 1.518-3.892-9.829-10.459 1.544zm-8.026 13.899l-3.918-9.784-10.433 1.499-3.963-9.81-10.433 1.498-3.919-9.784-9.632 1.78-.107-.543 10.104-1.868 3.893 9.829 10.458-1.544 3.938 9.855 10.458-1.543 3.893 9.829 10.458-1.544 3.893 9.83 10.504-1.518 3.892 9.829 10.459-1.544 4.02 10.024-.524.179-3.861-9.57-10.433 1.498-3.918-9.784-10.478 1.472-3.918-9.784-10.433 1.498zM58.72 31.374L54.8 21.59l-10.431 1.5-3.964-9.81-10.432 1.498-3.919-9.784-9.658 1.825-.107-.543 10.13-1.914 3.893 9.83 10.432-1.499 3.964 9.81 10.432-1.498 3.919 9.784 10.432-1.499 3.919 9.784 10.477-1.472 3.919 9.784 10.432-1.498 4.021 10.023-.524.179-3.835-9.616-10.433 1.498-3.918-9.783L73.07 39.66l-3.918-9.784-10.433 1.498z" fill="#A7BCEA" stroke="#DCA74A" stroke-miterlimit="10"/></svg>