<svg width="165" height="28" viewBox="0 0 165 28" fill="none" xmlns="http://www.w3.org/2000/svg">
<g clip-path="url(#clip0)">
<path d="M19.5726 18.7995L17.3911 16.6221C15.947 15.1807 15.947 12.8499 17.3911 11.4085L19.5726 9.23108C21.0168 7.78967 23.352 7.78967 24.7961 9.23108L26.9777 11.4085C28.4218 12.8499 28.4218 15.1807 26.9777 16.6221L24.7961 18.7995C23.352 20.2103 21.0168 20.2103 19.5726 18.7995Z" fill="#DCA74A"/>
<path d="M22.1843 16.4381C23.5249 16.4381 24.6117 15.3534 24.6117 14.0153C24.6117 12.6772 23.5249 11.5925 22.1843 11.5925C20.8437 11.5925 19.757 12.6772 19.757 14.0153C19.757 15.3534 20.8437 16.4381 22.1843 16.4381Z" fill="#2D2F32"/>
<path d="M18.8169 9.89225L18.0565 10.6512L20.2509 12.8415L21.0113 12.0825L18.8169 9.89225Z" fill="#2D2F32"/>
<path d="M18.8659 8.46438L16.6843 10.6418C15.2402 12.0832 12.905 12.0832 11.4608 10.6418L9.27927 8.46438C7.83513 7.02298 7.83513 4.6922 9.27927 3.2508L11.4608 1.07336C12.905 -0.368041 15.2402 -0.368041 16.6843 1.07336L18.8659 3.2508C20.31 4.6922 20.31 7.02298 18.8659 8.46438Z" fill="#DCA74A"/>
<path d="M14.0726 8.28038C15.4132 8.28038 16.5 7.19566 16.5 5.8576C16.5 4.51953 15.4132 3.43481 14.0726 3.43481C12.732 3.43481 11.6453 4.51953 11.6453 5.8576C11.6453 7.19566 12.732 8.28038 14.0726 8.28038Z" fill="#2D2F32"/>
<path d="M9.94428 9.21769L10.7047 9.97668L12.8991 7.78646L12.1387 7.02747L9.94428 9.21769Z" fill="#2D2F32"/>
<path d="M9.18713 19.5356L11.3687 17.3582C12.8128 15.9167 15.148 15.9167 16.5922 17.3582L18.7737 19.5356C20.2179 20.977 20.2179 23.3078 18.7737 24.7492L16.5922 26.9266C15.148 28.368 12.8128 28.368 11.3687 26.9266L9.18713 24.7492C7.77372 23.3078 7.77372 20.977 9.18713 19.5356Z" fill="#DCA74A"/>
<path d="M13.9805 24.5652C15.3211 24.5652 16.4078 23.4804 16.4078 22.1424C16.4078 20.8043 15.3211 19.7196 13.9805 19.7196C12.6399 19.7196 11.5531 20.8043 11.5531 22.1424C11.5531 23.4804 12.6399 24.5652 13.9805 24.5652Z" fill="#2D2F32"/>
<path d="M18.1009 18.7968L17.3405 18.0378L15.1461 20.2281L15.9065 20.9871L18.1009 18.7968Z" fill="#2D2F32"/>
<path d="M8.48044 9.23108L10.662 11.4085C12.1061 12.8499 12.1061 15.1807 10.662 16.6221L8.48044 18.7995C7.0363 20.2409 4.70111 20.2409 3.25697 18.7995L1.07541 16.6221C-0.368724 15.1807 -0.368724 12.8499 1.07541 11.4085L3.25697 9.23108C4.70111 7.78967 7.0363 7.78967 8.48044 9.23108Z" fill="#DCA74A"/>
<path d="M5.86866 16.4075C7.20926 16.4075 8.29603 15.3227 8.29603 13.9847C8.29603 12.6466 7.20926 11.5619 5.86866 11.5619C4.52806 11.5619 3.44128 12.6466 3.44128 13.9847C3.44128 15.3227 4.52806 16.4075 5.86866 16.4075Z" fill="#2D2F32"/>
<path d="M9.21967 18.1121L9.9801 17.3531L7.78572 15.1629L7.02529 15.9219L9.21967 18.1121Z" fill="#2D2F32"/>
<path d="M35.1201 4.23218H38.2849L46.243 17.7568H46.3352V4.23218H48.9469V21.161H45.6899L37.7933 7.575H37.7011V21.161H35.1201V4.23218Z" fill="#BEBFC0"/>
<path d="M63.2346 15.5794H54.3855C54.4777 16.7754 54.8464 17.7261 55.4302 18.4008C56.0447 19.0755 56.8436 19.3822 57.8883 19.3822C58.7793 19.3822 59.486 19.1675 60.0084 18.7075C60.5307 18.2475 60.8073 17.6648 60.9302 16.8981H63.0503C62.8659 18.3395 62.2821 19.4742 61.3911 20.2409C60.4693 21.0076 59.3631 21.4063 58.0726 21.4063C56.7821 21.4063 55.7067 21.1303 54.7849 20.5476C53.8631 19.9649 53.1872 19.1982 52.7263 18.2168C52.2654 17.2354 52.0503 16.1314 52.0503 14.9353C52.0503 13.7393 52.2654 12.6352 52.6955 11.6232C53.1257 10.6111 53.771 9.84441 54.6313 9.23105C55.4916 8.64836 56.5671 8.34167 57.8268 8.34167C59.0866 8.34167 60.1313 8.64836 60.9609 9.23105C61.7905 9.81374 62.3743 10.6111 62.743 11.5618C63.1117 12.5125 63.2961 13.5553 63.2961 14.6593C63.2654 15.0273 63.2654 15.334 63.2346 15.5794ZM55.3687 11.2858C54.7849 11.8685 54.4777 12.6965 54.3855 13.7393H60.9609C60.8995 12.7272 60.6229 11.8992 60.1006 11.2858C59.5782 10.6725 58.7793 10.3658 57.7654 10.3658C56.7207 10.3964 55.9525 10.6725 55.3687 11.2858Z" fill="#BEBFC0"/>
<path d="M82.3156 8.58704L79.3352 21.161H75.9245L73.3743 11.8072L70.8547 21.1916H67.4441L64.4944 8.6177H67.1676L69.2262 19.2902L72.2374 8.6177H74.5111L77.553 19.3209L79.6424 8.6177H82.3156V8.58704Z" fill="#BEBFC0"/>
<path d="M84.6815 20.4556C83.5446 19.6582 82.9916 18.4928 82.9916 16.9287H85.2653C85.2653 17.8488 85.5419 18.5542 86.0949 18.9528C86.6173 19.3515 87.3854 19.5355 88.3994 19.5355C89.0754 19.5049 89.6284 19.3515 90.0586 19.0448C90.4888 18.7382 90.7039 18.2781 90.7039 17.6648C90.7039 17.2354 90.581 16.8981 90.3044 16.6527C90.0279 16.4074 89.7206 16.2234 89.3212 16.1007C88.9217 15.978 88.3379 15.8247 87.5083 15.61C86.5865 15.3953 85.8491 15.1807 85.296 14.966C84.743 14.7513 84.2513 14.414 83.8519 13.9539C83.4525 13.4939 83.2681 12.8806 83.2681 12.1139C83.2681 10.9178 83.6983 9.96708 84.5586 9.32305C85.419 8.67902 86.5251 8.34167 87.9385 8.34167C89.2905 8.34167 90.3659 8.61769 91.1955 9.16971C91.7486 9.53773 92.1787 9.99775 92.4553 10.5498C92.7318 11.1018 92.8854 11.7458 92.8854 12.4512H90.7346C90.7346 11.6232 90.4581 11.0405 89.9357 10.6725C89.4748 10.3658 88.8603 10.2124 88.1536 10.2124C87.3854 10.2124 86.8016 10.3658 86.31 10.6418C85.8491 10.9178 85.6033 11.3472 85.6033 11.8685C85.6033 12.2365 85.7569 12.5125 86.0335 12.7272C86.31 12.9419 86.648 13.1259 87.0167 13.2179C87.3854 13.3406 88.0614 13.4939 89.0139 13.7393C89.8743 13.9539 90.6117 14.1686 91.1648 14.414C91.7486 14.6593 92.2094 15.0273 92.5782 15.4873C92.9469 15.9474 93.1312 16.5914 93.1312 17.3888C93.1312 18.6462 92.7011 19.6275 91.8715 20.3329C91.0419 21.0383 89.9972 21.3756 88.7374 21.3756C86.986 21.437 85.634 21.0996 84.6815 20.4556Z" fill="#BEBFC0"/>
<path d="M106.159 15.5794H97.3101C97.4022 16.7754 97.7709 17.7261 98.3547 18.4008C98.9693 19.0755 99.7681 19.3822 100.813 19.3822C101.704 19.3822 102.411 19.1675 102.933 18.7075C103.455 18.2475 103.732 17.6648 103.855 16.8981H105.975C105.79 18.3395 105.207 19.4742 104.316 20.2409C103.394 21.0076 102.288 21.4063 100.997 21.4063C99.7067 21.4063 98.6313 21.1303 97.7095 20.5476C96.7877 19.9649 96.1117 19.1982 95.6508 18.2168C95.1899 17.2354 94.9749 16.1314 94.9749 14.9353C94.9749 13.7393 95.1899 12.6352 95.6201 11.6232C96.0503 10.6111 96.6955 9.84441 97.5559 9.23105C98.4162 8.64836 99.4916 8.34167 100.751 8.34167C102.011 8.34167 103.056 8.64836 103.885 9.23105C104.715 9.81374 105.299 10.6111 105.668 11.5618C106.036 12.5125 106.221 13.5553 106.221 14.6593C106.19 15.0273 106.19 15.334 106.159 15.5794ZM98.2933 11.2858C97.7095 11.8685 97.4022 12.6965 97.3101 13.7393H103.855C103.793 12.7272 103.517 11.8992 102.994 11.2858C102.472 10.6725 101.673 10.3658 100.659 10.3658C99.6452 10.3964 98.8464 10.6725 98.2933 11.2858Z" fill="#DCA74A"/>
<path d="M111.721 14.8127L106.866 8.58704H109.939L113.441 13.1873L116.913 8.58704H119.986L115.131 14.8127L119.955 21.161H116.883L113.411 16.4687L109.939 21.161H106.866L111.721 14.8127Z" fill="#DCA74A"/>
<path d="M121.891 8.58705H124.349V10.3658C124.81 9.6911 125.425 9.20041 126.162 8.83239C126.899 8.46438 127.698 8.31104 128.559 8.31104C129.665 8.31104 130.648 8.58705 131.447 9.13907C132.277 9.6911 132.891 10.4578 133.321 11.4699C133.751 12.4512 133.966 13.586 133.966 14.8433C133.966 16.1007 133.751 17.2355 133.321 18.2168C132.891 19.1982 132.246 19.9956 131.416 20.5476C130.587 21.0996 129.603 21.4063 128.497 21.4063C127.606 21.4063 126.807 21.253 126.07 20.9156C125.332 20.5783 124.749 20.0876 124.318 19.3822V25.4852H121.86V8.58705H121.891ZM130.525 18.1555C131.17 17.3581 131.508 16.2541 131.508 14.8433C131.508 13.4633 131.17 12.3592 130.525 11.5925C129.88 10.8258 128.958 10.4271 127.821 10.4271C126.715 10.4271 125.824 10.8258 125.179 11.6232C124.534 12.4206 124.196 13.4939 124.196 14.8433C124.196 16.2541 124.534 17.3581 125.179 18.1555C125.824 18.9529 126.715 19.3516 127.821 19.3516C128.989 19.3516 129.88 18.9529 130.525 18.1555Z" fill="#DCA74A"/>
<path d="M147.425 15.5794H138.575C138.668 16.7754 139.036 17.7261 139.62 18.4008C140.235 19.0755 141.034 19.3822 142.078 19.3822C142.969 19.3822 143.676 19.1675 144.198 18.7075C144.721 18.2475 144.997 17.6648 145.12 16.8981H147.24C147.056 18.3395 146.472 19.4742 145.581 20.2409C144.659 21.0076 143.553 21.4063 142.263 21.4063C140.972 21.4063 139.897 21.1303 138.975 20.5476C138.053 19.9649 137.377 19.1982 136.916 18.2168C136.455 17.2354 136.24 16.1314 136.24 14.9353C136.24 13.7393 136.455 12.6352 136.885 11.6232C137.316 10.6111 137.961 9.84441 138.821 9.23105C139.682 8.64836 140.757 8.34167 142.017 8.34167C143.277 8.34167 144.321 8.64836 145.151 9.23105C145.98 9.81374 146.564 10.6111 146.933 11.5618C147.302 12.5125 147.486 13.5553 147.486 14.6593C147.455 15.0273 147.455 15.334 147.425 15.5794ZM139.559 11.2858C138.975 11.8685 138.668 12.6965 138.575 13.7393H145.151C145.089 12.7272 144.813 11.8992 144.291 11.2858C143.768 10.6725 142.969 10.3658 141.955 10.3658C140.911 10.3964 140.112 10.6725 139.559 11.2858Z" fill="#DCA74A"/>
<path d="M150.282 8.58709H152.709V10.2738C153.017 9.69114 153.416 9.23112 153.939 8.89377C154.461 8.55642 155.045 8.40308 155.69 8.40308C156.059 8.40308 156.458 8.46441 156.95 8.58709V10.8565H156.612C156.182 10.7339 155.813 10.6725 155.475 10.6725C154.645 10.6725 153.969 10.9792 153.508 11.6232C153.017 12.2673 152.771 13.034 152.771 13.9847V21.161H150.282V8.58709Z" fill="#DCA74A"/>
<path d="M159.623 17.8795V10.4578H157.779V8.58703H159.623V5.70422H162.081V8.58703H165V10.4578H162.081V17.2968C162.081 17.9715 162.204 18.4622 162.45 18.7382C162.696 19.0142 163.126 19.1675 163.709 19.1675H165V21.161H162.757C160.668 21.161 159.623 20.0569 159.623 17.8795Z" fill="#DCA74A"/>
</g>
<defs>
<clipPath id="clip0">
<rect width="165" height="28" fill="white"/>
</clipPath>
</defs>
</svg>
