<svg width="106" height="84" viewBox="0 0 106 84" fill="none" xmlns="http://www.w3.org/2000/svg">
<path d="M51.1892 44.4166L47.2967 34.5876L36.8382 36.131L32.9005 26.276L22.4421 27.8194L18.5495 17.9904L8.89129 19.8154L8.78383 19.2719L18.8882 17.4037L22.8069 27.1876L33.2393 25.6893L37.203 35.4992L47.6354 34.0009L51.554 43.7848L61.9864 42.2865L65.905 52.0704L76.3826 50.5981L80.3012 60.382L90.7336 58.8836L94.7546 68.9072L94.2302 69.0858L90.3949 59.4703L79.9364 61.0138L76.0439 51.1848L65.5403 52.7022L61.6477 42.8731L51.1892 44.4166Z" fill="#A7BCEA" stroke="#DCA74A" stroke-miterlimit="10"/>
<path d="M43.1642 58.3164L39.2456 48.5325L28.8132 50.0308L24.8495 40.2208L14.4171 41.7192L10.4984 31.9353L0.866264 33.7151L0.758804 33.1717L10.8632 31.3035L14.7558 41.1325L25.2142 39.589L29.1519 49.4441L39.6104 47.9006L43.5029 57.7297L53.9614 56.1862L57.854 66.0152L68.3576 64.4978L72.2501 74.3269L82.7086 72.7834L86.7295 82.8069L86.2052 82.9856L82.3438 73.4152L71.9114 74.9135L67.9928 65.1296L57.5152 66.6019L53.5966 56.818L43.1642 58.3164Z" fill="#A7BCEA" stroke="#DCA74A" stroke-miterlimit="10"/>
<path d="M58.7192 31.3743L54.8006 21.5904L44.3681 23.0888L40.4044 13.2788L29.972 14.7772L26.0534 4.99325L16.3951 6.81821L16.2877 6.2748L26.4182 4.36144L30.3107 14.1905L40.7431 12.6921L44.7069 22.5021L55.1393 21.0038L59.0579 30.7877L69.4903 29.2893L73.4089 39.0732L83.8864 37.6009L87.805 47.3848L98.2375 45.8865L102.258 55.91L101.734 56.0887L97.8987 46.4732L87.4663 47.9715L83.5477 38.1876L73.0702 39.6599L69.1516 29.876L58.7192 31.3743Z" fill="#A7BCEA" stroke="#DCA74A" stroke-miterlimit="10"/>
</svg>
